<svg xmlns="http://www.w3.org/2000/svg" version="1.1" width="2000" height="803" viewBox="0 0 2000 803"><g transform="matrix(1,0,0,1,-1.2120830409222663,-0.3150960163421246)"><svg viewBox="0 0 396 159" data-background-color="#ffffff" preserveAspectRatio="xMidYMid meet" height="803" width="2000" xmlns="http://www.w3.org/2000/svg" xmlns:xlink="http://www.w3.org/1999/xlink"><defs></defs><g id="tight-bounds" transform="matrix(1,0,0,1,0.23999528496801759,0.06239136562689396)"><svg viewBox="0 0 395.52 158.8752172687462" height="158.8752172687462" width="395.52"><g><svg viewBox="0 0 395.52 158.8752172687462" height="158.8752172687462" width="395.52"><g><svg viewBox="0 0 575.6422925031601 231.22798920539725" height="158.8752172687462" width="395.52"><g><rect width="9.572179787134273" height="231.22798920539725" x="145.49205044604088" y="0" fill="#ffffff" opacity="1" stroke-width="0" stroke="transparent" fill-opacity="1" class="rect-o-0" data-fill-palette-color="primary" rx="1%" id="o-0" data-palette-color="#ffffff"></rect></g><g transform="matrix(1,0,0,1,180.12229250316017,0.5751940029984866)"><svg viewBox="0 0 395.52 230.07760119940028" height="230.07760119940028" width="395.52"><g><svg viewBox="0 0 395.52 230.07760119940028" height="230.07760119940028" width="395.52"><g><svg viewBox="0 0 395.52 230.07760119940028" height="230.07760119940028" width="395.52"><g transform="matrix(1,0,0,1,0,0)"><svg width="395.52" viewBox="1 -35 135.14999389648438 74.0999984741211" height="230.07760119940028" data-palette-color="#ffffff"><svg></svg><svg></svg><g class="undefined-text-0" data-fill-palette-color="primary" id="text-0"><path d="M14.5 0h-3.7v-31.65h-9.8v-3.35h23.2v3.35h-9.7zM53.85-35v35h-3.75v-16.55h-16.6v16.55h-3.75v-35h3.75v15.2h16.6v-15.2zM66.7-35v35h-3.75v-35zM100.65-35v35.05h-4.1l-16.85-28.05v28h-3.9v-35h3.9l17.2 29.1v-29.1zM120.55-21.7l12.4 21.7h-4.7l-10.25-19.15-4.5 4.75v14.4h-3.75v-34.95h3.7v15.75l14.6-15.8h4.6z" data-fill-palette-color="primary" fill="#ffffff" opacity="1"></path><path d="M22.15 5.05v0l-0.8 3.35-2.9-0.85c-2.067-0.5-3.85-0.75-5.35-0.75v0c-3.933 0-5.9 1.75-5.9 5.25v0c0 1.533 0.6 2.79 1.8 3.77 1.2 0.987 2.66 1.77 4.38 2.35 1.713 0.587 3.43 1.22 5.15 1.9 1.713 0.687 3.17 1.737 4.37 3.15 1.2 1.42 1.8 3.213 1.8 5.38v0c0 3.3-1.017 5.873-3.05 7.72-2.033 1.853-4.917 2.78-8.65 2.78v0c-1.867 0-3.74-0.277-5.62-0.83-1.887-0.547-3.43-1.187-4.63-1.92v0l1.25-2.85c3.033 1.4 5.91 2.1 8.63 2.1 2.713 0 4.777-0.55 6.19-1.65 1.42-1.1 2.13-2.7 2.13-4.8v0c0-2.133-1.15-3.8-3.45-5v0c-1.033-0.533-2.173-1.033-3.42-1.5-1.253-0.467-2.503-0.977-3.75-1.53-1.253-0.547-2.387-1.17-3.4-1.87-1.02-0.7-1.857-1.65-2.51-2.85-0.647-1.2-0.97-2.6-0.97-4.2v0c0-2.867 0.86-5.067 2.58-6.6 1.713-1.533 4.02-2.3 6.92-2.3 2.9 0 5.967 0.583 9.2 1.75zM40.95 24.1v0h-5.1v14.7h-3.75v-35h10c3.733 0 6.443 0.817 8.13 2.45 1.68 1.633 2.52 4.173 2.52 7.62 0 3.453-1.033 6.02-3.1 7.7-2.067 1.687-4.967 2.53-8.7 2.53zM40.4 7v0h-4.55v13.9h3.3c3.433 0 5.933-0.517 7.5-1.55 1.567-1.033 2.35-2.81 2.35-5.33 0-2.513-0.683-4.313-2.05-5.4-1.367-1.08-3.55-1.62-6.55-1.62zM71.3 3.8l11.6 35h-4.2l-3.5-11.05h-12.55l-3.45 11.05h-3.95l11.5-35zM63.6 24.5h10.75l-5.35-16.9zM100.85 39.1v0c-4.767 0-8.423-1.61-10.97-4.83-2.553-3.213-3.83-7.57-3.83-13.07 0-5.5 1.35-9.85 4.05-13.05 2.7-3.2 6.467-4.8 11.3-4.8v0c2.667 0 5.283 0.483 7.85 1.45v0l-0.9 3.1c-2.033-0.867-4.433-1.3-7.2-1.3v0c-3.5 0-6.267 1.273-8.3 3.82-2.033 2.553-3.05 6.053-3.05 10.5 0 4.453 0.96 8.053 2.88 10.8 1.913 2.753 4.587 4.13 8.02 4.13v0c2.267 0 5.117-0.65 8.55-1.95v0l1 2.6c-2.867 1.733-6 2.6-9.4 2.6zM136.15 35.55v3.25h-18.85v-35h18.85v3.25h-15.1v11.1h13.85v3.35h-13.85v14.05z" data-fill-palette-color="primary" fill="#ffffff" opacity="1"></path></g></svg></g></svg></g></svg></g></svg></g><g transform="matrix(1,0,0,1,0,0.5751940029984866)"><svg viewBox="0 0 120.43398817605586 230.07760119940028" height="230.07760119940028" width="120.43398817605586"><g><svg xmlns="http://www.w3.org/2000/svg" xmlns:xlink="http://www.w3.org/1999/xlink" version="1.1" x="0" y="0" viewBox="19.682355880737305 3.5 35.572967529296875 67.95874786376953" enable-background="new 0 0 75 75" xml:space="preserve" height="230.07760119940028" width="120.43398817605586" class="icon-icon-0" data-fill-palette-color="accent" id="icon-0"><path d="M21.2 59.5c-1.1-2.6-4.2-12.2 3.8-24.7C36 18 31.7 3.5 31.7 3.5S46 8.8 41.7 37.5c-1 6.5-0.9 9 2 9.4 5 0.7 3.1-19.7 3.1-19.7s3.9 2 6.8 12.1c1.5 5.3 1.8 9.5 1.6 12.5-1 18.1-16.5 19.6-16.5 19.6S26.9 73 21.2 59.5z" fill="#fe6b00" data-fill-palette-color="accent"></path></svg></g></svg></g></svg></g></svg></g></svg><rect width="395.52" height="158.8752172687462" fill="none" stroke="none" visibility="hidden"></rect></g></svg></g></svg>